<svg width="151" height="76" viewBox="0 0 151 76" fill="none" xmlns="http://www.w3.org/2000/svg">
<g filter="url(#filter0_dd_209_526)">
<path d="M53.0461 52.9619L50.1166 47.9867L48.5506 48.0023L48.6003 53.006L46.5484 53.0264L46.4243 40.517L50.744 40.4741C51.704 40.4646 52.5156 40.6246 53.1789 40.954C53.8542 41.2833 54.3567 41.7284 54.6862 42.2891C55.0278 42.8498 55.2021 43.4781 55.209 44.174C55.2171 44.99 54.9845 45.7363 54.5112 46.4131C54.0497 47.0777 53.3282 47.5349 52.3467 47.7846L55.4939 52.9376L53.0461 52.9619ZM48.5344 46.3644L50.8023 46.3419C51.5702 46.3342 52.1443 46.1365 52.5245 45.7487C52.9166 45.3608 53.1095 44.8429 53.1031 44.1949C53.0966 43.547 52.8997 43.0449 52.5121 42.6887C52.1244 42.3205 51.5406 42.1403 50.7606 42.1481L48.4928 42.1706L48.5344 46.3644ZM66.804 42.9069L66.9024 52.8244L64.8505 52.8448L64.8389 51.6748C64.519 52.086 64.0962 52.4142 63.5706 52.6595C63.0569 52.8926 62.5061 53.0121 61.9181 53.0179C61.1381 53.0256 60.4346 52.8706 59.8074 52.5528C59.1922 52.2349 58.7015 51.7597 58.3352 51.1273C57.9809 50.4948 57.7993 49.7286 57.7903 48.8286L57.7325 42.9969L59.7664 42.9767L59.8212 48.5025C59.83 49.3904 60.0588 50.0722 60.5075 50.5478C60.9561 51.0113 61.5644 51.2393 62.3324 51.2317C63.1004 51.2241 63.704 50.9841 64.1433 50.5117C64.5946 50.0272 64.8158 49.341 64.8069 48.453L64.7521 42.9273L66.804 42.9069ZM68.8761 47.8006C68.8662 46.8046 69.0615 45.9207 69.4618 45.1487C69.8742 44.3765 70.4323 43.777 71.1361 43.3499C71.8518 42.9108 72.6476 42.6869 73.5235 42.6782C74.1715 42.6718 74.8089 42.8095 75.4357 43.0913C76.0744 43.361 76.5821 43.7279 76.9587 44.1922L76.9112 39.4045L78.9811 39.3839L79.1133 52.7033L77.0434 52.7238L77.0286 51.2299C76.6973 51.7132 76.2333 52.1138 75.6364 52.4317C75.0515 52.7496 74.3751 52.9123 73.6072 52.9199C72.7432 52.9285 71.9491 52.7203 71.2248 52.2955C70.5125 51.8586 69.9424 51.2522 69.5147 50.4764C69.0989 49.6885 68.886 48.7965 68.8761 47.8006ZM76.9941 47.756C76.9873 47.0721 76.8374 46.4795 76.5444 45.9784C76.2634 45.4772 75.8936 45.0968 75.435 44.8374C74.9765 44.5779 74.4832 44.4508 73.9552 44.456C73.4272 44.4613 72.9366 44.5981 72.4832 44.8667C72.0297 45.1232 71.6615 45.5048 71.3785 46.0117C71.1074 46.5064 70.9752 47.0957 70.982 47.7797C70.9888 48.4637 71.1328 49.0623 71.4139 49.5755C71.707 50.0886 72.0829 50.4809 72.5416 50.7524C73.0122 51.0117 73.5055 51.1388 74.0215 51.1337C74.5494 51.1285 75.0401 50.9916 75.4935 50.7231C75.9468 50.4546 76.309 50.067 76.58 49.5602C76.8628 49.0414 77.0009 48.44 76.9941 47.756ZM82.7409 41.4347C82.3689 41.4384 82.0556 41.3155 81.8012 41.066C81.5467 40.8165 81.4176 40.5058 81.4139 40.1338C81.4102 39.7618 81.5331 39.4486 81.7826 39.1941C82.0321 38.9396 82.3428 38.8105 82.7148 38.8068C83.0748 38.8033 83.382 38.9262 83.6365 39.1757C83.891 39.4252 84.0201 39.7359 84.0238 40.1079C84.0275 40.4799 83.9046 40.7931 83.6551 41.0476C83.4056 41.3021 83.1008 41.4311 82.7409 41.4347ZM83.7619 42.7386L83.8603 52.6562L81.8084 52.6765L81.71 42.759L83.7619 42.7386ZM85.8206 47.6325C85.8107 46.6365 86.006 45.7525 86.4063 44.9805C86.8187 44.2084 87.3768 43.6088 88.0806 43.1818C88.7962 42.7427 89.5921 42.5188 90.468 42.5101C91.116 42.5037 91.7534 42.6413 92.3802 42.9231C93.0189 43.1928 93.5266 43.5598 93.9032 44.0241L93.8557 39.2363L95.9256 39.2158L96.0578 52.5351L93.9879 52.5557L93.973 51.0617C93.6418 51.545 93.1778 51.9457 92.5809 52.2636C91.996 52.5814 91.3196 52.7441 90.5516 52.7518C89.6877 52.7603 88.8936 52.5522 88.1693 52.1274C87.457 51.6904 86.8869 51.084 86.4592 50.3083C86.0434 49.5203 85.8305 48.6284 85.8206 47.6325ZM93.9386 47.5879C93.9318 46.9039 93.7819 46.3114 93.4889 45.8103C93.2079 45.309 92.8381 44.9287 92.3795 44.6692C91.9209 44.4098 91.4276 44.2827 90.8997 44.2879C90.3717 44.2931 89.881 44.43 89.4277 44.6985C88.9742 44.955 88.606 45.3367 88.323 45.8435C88.0519 46.3383 87.9197 46.9276 87.9265 47.6116C87.9333 48.2955 88.0772 48.8941 88.3583 49.4074C88.6514 49.9205 89.0274 50.3128 89.4861 50.5842C89.9567 50.8436 90.45 50.9707 90.9659 50.9656C91.4939 50.9603 91.9846 50.8235 92.4379 50.5549C92.8913 50.2864 93.2535 49.8988 93.5244 49.3921C93.8073 48.8733 93.9454 48.2719 93.9386 47.5879ZM103.056 52.6277C102.12 52.637 101.272 52.4354 100.512 52.0229C99.7519 51.5984 99.1519 51.0043 98.7123 50.2407C98.2726 49.465 98.0477 48.5672 98.0376 47.5472C98.0276 46.5393 98.2407 45.6431 98.6769 44.8588C99.1132 44.0744 99.7132 43.4684 100.477 43.0408C101.241 42.6132 102.097 42.3947 103.045 42.3853C103.993 42.3759 104.853 42.5774 105.625 42.9897C106.397 43.4021 107.009 43.996 107.461 44.7716C107.912 45.5472 108.143 46.4389 108.153 47.4469C108.163 48.4548 107.944 49.351 107.496 50.1355C107.047 50.92 106.43 51.5322 105.642 51.972C104.866 52.3997 104.004 52.6183 103.056 52.6277ZM103.039 50.8458C103.567 50.8405 104.057 50.7097 104.511 50.4531C104.976 50.1965 105.35 49.8148 105.633 49.308C105.916 48.8011 106.054 48.1877 106.047 47.4678C106.04 46.7478 105.896 46.1432 105.615 45.654C105.334 45.1527 104.964 44.7784 104.506 44.5309C104.047 44.2834 103.554 44.1623 103.026 44.1676C102.498 44.1728 102.008 44.3037 101.554 44.5602C101.113 44.8166 100.762 45.1981 100.503 45.7047C100.244 46.1993 100.118 46.8065 100.125 47.5265C100.136 48.5945 100.414 49.4197 100.96 50.0024C101.518 50.5729 102.211 50.854 103.039 50.8458Z" fill="#28113C"/>
<path d="M120.096 39.786L120.22 52.2954L118.168 52.3157L118.114 46.844L112.228 46.9024L112.283 52.3741L110.231 52.3945L110.107 39.8851L112.159 39.8647L112.212 45.2285L118.098 45.1701L118.044 39.8063L120.096 39.786ZM132.628 54.4404L130.408 52.0863C129.87 52.2476 129.277 52.3315 128.629 52.3379C127.465 52.3495 126.388 52.0902 125.399 51.5599C124.421 51.0176 123.64 50.2633 123.054 49.2971C122.48 48.3187 122.187 47.2176 122.175 45.9937C122.163 44.7697 122.434 43.669 122.989 42.6914C123.555 41.7138 124.321 40.9501 125.288 40.4005C126.266 39.8388 127.338 39.5521 128.502 39.5406C129.678 39.5289 130.754 39.7942 131.732 40.3366C132.721 40.8668 133.502 41.615 134.076 42.5814C134.65 43.5478 134.943 44.6429 134.955 45.8668C134.966 47.0188 134.724 48.0652 134.23 49.0062C133.747 49.935 133.07 50.6858 132.2 51.2584L135.237 54.4145L132.628 54.4404ZM124.281 45.9728C124.29 46.8967 124.478 47.7109 124.845 48.4153C125.224 49.1076 125.74 49.6425 126.391 50.02C127.043 50.3856 127.783 50.5642 128.611 50.556C129.439 50.5478 130.175 50.3545 130.819 49.9761C131.463 49.5857 131.962 49.0407 132.315 48.3412C132.68 47.6295 132.858 46.8117 132.849 45.8877C132.84 44.9638 132.646 44.1557 132.267 43.4634C131.9 42.771 131.391 42.242 130.739 41.8765C130.087 41.5109 129.347 41.3323 128.519 41.3405C127.691 41.3487 126.955 41.542 126.311 41.9204C125.667 42.2988 125.162 42.8379 124.797 43.5375C124.444 44.2371 124.272 45.0488 124.281 45.9728Z" fill="#EA1AB0"/>
</g>
<g filter="url(#filter1_ddd_209_526)">
<rect x="26.6558" y="42.8928" width="28.3556" height="6.97608" rx="3.48804" transform="rotate(45.2975 26.6558 42.8928)" fill="#28113C"/>
<rect x="26.6521" y="43.5999" width="27.3556" height="5.97608" rx="2.98804" transform="rotate(45.2975 26.6521 43.5999)" stroke="#E5E5E5"/>
</g>
<rect x="18.0308" y="12.9197" width="15.5075" height="2.53566" rx="1.26783" transform="rotate(89.2613 18.0308 12.9197)" fill="#28113C"/>
<g filter="url(#filter2_dd_209_526)">
<mask id="path-5-outside-1_209_526" maskUnits="userSpaceOnUse" x="4" y="0" width="42" height="42" fill="black">
<rect fill="white" x="4" width="42" height="42"/>
<path fill-rule="evenodd" clip-rule="evenodd" d="M44.9164 20.9582C44.9164 31.9808 35.9808 40.9164 24.9582 40.9164C23.1445 40.9164 21.3873 40.6745 19.7172 40.2211L5.40897 24.9975C5.14084 23.693 5 22.342 5 20.9582C5 9.93559 13.9356 1 24.9582 1C35.9808 1 44.9164 9.93559 44.9164 20.9582Z"/>
</mask>
<path fill-rule="evenodd" clip-rule="evenodd" d="M44.9164 20.9582C44.9164 31.9808 35.9808 40.9164 24.9582 40.9164C23.1445 40.9164 21.3873 40.6745 19.7172 40.2211L5.40897 24.9975C5.14084 23.693 5 22.342 5 20.9582C5 9.93559 13.9356 1 24.9582 1C35.9808 1 44.9164 9.93559 44.9164 20.9582Z" fill="#28113C"/>
<path d="M19.7172 40.2211L19.3528 40.5636L19.4497 40.6666L19.5862 40.7037L19.7172 40.2211ZM5.40897 24.9975L4.9192 25.0981L4.9477 25.2368L5.04463 25.3399L5.40897 24.9975ZM24.9582 41.4164C36.257 41.4164 45.4164 32.257 45.4164 20.9582H44.4164C44.4164 31.7047 35.7047 40.4164 24.9582 40.4164V41.4164ZM19.5862 40.7037C21.2987 41.1685 23.0999 41.4164 24.9582 41.4164V40.4164C23.1892 40.4164 21.476 40.1805 19.8482 39.7386L19.5862 40.7037ZM5.04463 25.3399L19.3528 40.5636L20.0815 39.8787L5.7733 24.655L5.04463 25.3399ZM4.5 20.9582C4.5 22.376 4.64431 23.7607 4.9192 25.0981L5.89873 24.8968C5.63737 23.6252 5.5 22.308 5.5 20.9582H4.5ZM24.9582 0.5C13.6594 0.5 4.5 9.65945 4.5 20.9582H5.5C5.5 10.2117 14.2117 1.5 24.9582 1.5V0.5ZM45.4164 20.9582C45.4164 9.65945 36.257 0.5 24.9582 0.5V1.5C35.7047 1.5 44.4164 10.2117 44.4164 20.9582H45.4164Z" fill="#E5E5E5" mask="url(#path-5-outside-1_209_526)"/>
</g>
<g filter="url(#filter3_ddd_209_526)">
<mask id="path-7-inside-2_209_526" fill="white">
<path fill-rule="evenodd" clip-rule="evenodd" d="M18.4829 45.3911L8.10095 45.2972C6.52468 45.283 5.23965 46.5493 5.23076 48.1256C5.22187 49.7019 6.49248 50.9913 8.06875 51.0056L18.4829 51.0997V45.3911Z"/>
</mask>
<path fill-rule="evenodd" clip-rule="evenodd" d="M18.4829 45.3911L8.10095 45.2972C6.52468 45.283 5.23965 46.5493 5.23076 48.1256C5.22187 49.7019 6.49248 50.9913 8.06875 51.0056L18.4829 51.0997V45.3911Z" fill="#EA1AB0"/>
<path d="M18.4829 45.3911H19.4829V44.4001L18.492 44.3911L18.4829 45.3911ZM8.10095 45.2972L8.09191 46.2972L8.10095 45.2972ZM5.23076 48.1256L6.23074 48.1312L5.23076 48.1256ZM8.06875 51.0056L8.05971 52.0055L8.05971 52.0055L8.06875 51.0056ZM18.4829 51.0997L18.4739 52.0996L19.4829 52.1088V51.0997H18.4829ZM18.492 44.3911L8.10999 44.2973L8.09191 46.2972L18.4739 46.391L18.492 44.3911ZM8.10999 44.2973C5.98013 44.278 4.24279 45.99 4.23078 48.12L6.23074 48.1312C6.23651 47.1085 7.06923 46.288 8.09191 46.2972L8.10999 44.2973ZM4.23078 48.12C4.21878 50.2472 5.93251 51.9863 8.05971 52.0055L8.07779 50.0056C7.05245 49.9963 6.22496 49.1566 6.23074 48.1312L4.23078 48.12ZM8.05971 52.0055L18.4739 52.0996L18.492 50.0997L8.07779 50.0056L8.05971 52.0055ZM19.4829 51.0997V45.3911H17.4829V51.0997H19.4829Z" fill="#E5E5E5" mask="url(#path-7-inside-2_209_526)"/>
</g>
<g filter="url(#filter4_ddd_209_526)">
<mask id="path-9-inside-3_209_526" fill="white">
<path fill-rule="evenodd" clip-rule="evenodd" d="M18.4699 53.3272L11.9755 53.2451C10.3667 53.2248 9.05729 54.5126 9.05081 56.1215C9.04432 57.7304 10.3432 59.0511 11.952 59.0715L18.4699 59.1539V53.3272Z"/>
</mask>
<path fill-rule="evenodd" clip-rule="evenodd" d="M18.4699 53.3272L11.9755 53.2451C10.3667 53.2248 9.05729 54.5126 9.05081 56.1215C9.04432 57.7304 10.3432 59.0511 11.952 59.0715L18.4699 59.1539V53.3272Z" fill="#28113C"/>
<path d="M18.4699 53.3272H19.4699V52.3398L18.4825 52.3273L18.4699 53.3272ZM11.9755 53.2451L11.9629 54.245L11.9755 53.2451ZM9.05081 56.1215L8.05081 56.1174L9.05081 56.1215ZM11.952 59.0715L11.9647 58.0716L11.9647 58.0716L11.952 59.0715ZM18.4699 59.1539L18.4573 60.1538L19.4699 60.1666V59.1539H18.4699ZM18.4825 52.3273L11.9882 52.2452L11.9629 54.245L18.4573 54.3272L18.4825 52.3273ZM11.9882 52.2452C9.82377 52.2178 8.05954 53.9529 8.05081 56.1174L10.0508 56.1255C10.055 55.0722 10.9097 54.2317 11.9629 54.245L11.9882 52.2452ZM8.05081 56.1174C8.04211 58.2753 9.78172 60.0441 11.9394 60.0714L11.9647 58.0716C10.9048 58.0582 10.0465 57.1855 10.0508 56.1255L8.05081 56.1174ZM11.9394 60.0714L18.4573 60.1538L18.4825 58.154L11.9647 58.0716L11.9394 60.0714ZM19.4699 59.1539V53.3272H17.4699V59.1539H19.4699Z" fill="#E5E5E5" mask="url(#path-9-inside-3_209_526)"/>
</g>
<g filter="url(#filter5_ddd_209_526)">
<path fill-rule="evenodd" clip-rule="evenodd" d="M18.47 61.523L14.8563 61.4755C13.9092 61.463 13.1385 62.2208 13.1348 63.168C13.1311 64.1152 13.8959 64.8931 14.843 64.9056L18.47 64.9533V61.523Z" fill="#EA1AB0"/>
</g>
<g filter="url(#filter6_ddd_209_526)">
<path fill-rule="evenodd" clip-rule="evenodd" d="M18.4688 64.9849L16.5585 64.9617C15.9061 64.9538 15.3764 65.4762 15.3753 66.1286C15.3742 66.781 15.9022 67.3163 16.5545 67.3243L18.4734 67.3476L18.4688 64.9849Z" fill="#EA1AB0"/>
</g>
<defs>
<filter id="filter0_dd_209_526" x="42.4106" y="38.2874" width="96.8267" height="25.0068" filterUnits="userSpaceOnUse" color-interpolation-filters="sRGB">
<feFlood flood-opacity="0" result="BackgroundImageFix"/>
<feColorMatrix in="SourceAlpha" type="matrix" values="0 0 0 0 0 0 0 0 0 0 0 0 0 0 0 0 0 0 127 0" result="hardAlpha"/>
<feOffset dy="4"/>
<feGaussianBlur stdDeviation="2"/>
<feComposite in2="hardAlpha" operator="out"/>
<feColorMatrix type="matrix" values="0 0 0 0 0 0 0 0 0 0 0 0 0 0 0 0 0 0 0.25 0"/>
<feBlend mode="normal" in2="BackgroundImageFix" result="effect1_dropShadow_209_526"/>
<feColorMatrix in="SourceAlpha" type="matrix" values="0 0 0 0 0 0 0 0 0 0 0 0 0 0 0 0 0 0 127 0" result="hardAlpha"/>
<feOffset dy="4"/>
<feGaussianBlur stdDeviation="2"/>
<feComposite in2="hardAlpha" operator="out"/>
<feColorMatrix type="matrix" values="0 0 0 0 0 0 0 0 0 0 0 0 0 0 0 0 0 0 0.25 0"/>
<feBlend mode="normal" in2="effect1_dropShadow_209_526" result="effect2_dropShadow_209_526"/>
<feBlend mode="normal" in="SourceGraphic" in2="effect2_dropShadow_209_526" result="shape"/>
</filter>
<filter id="filter1_ddd_209_526" x="19.1421" y="44.3376" width="30.0151" height="30.1719" filterUnits="userSpaceOnUse" color-interpolation-filters="sRGB">
<feFlood flood-opacity="0" result="BackgroundImageFix"/>
<feColorMatrix in="SourceAlpha" type="matrix" values="0 0 0 0 0 0 0 0 0 0 0 0 0 0 0 0 0 0 127 0" result="hardAlpha"/>
<feOffset dy="4"/>
<feGaussianBlur stdDeviation="2"/>
<feComposite in2="hardAlpha" operator="out"/>
<feColorMatrix type="matrix" values="0 0 0 0 0 0 0 0 0 0 0 0 0 0 0 0 0 0 0.25 0"/>
<feBlend mode="normal" in2="BackgroundImageFix" result="effect1_dropShadow_209_526"/>
<feColorMatrix in="SourceAlpha" type="matrix" values="0 0 0 0 0 0 0 0 0 0 0 0 0 0 0 0 0 0 127 0" result="hardAlpha"/>
<feOffset dy="4"/>
<feGaussianBlur stdDeviation="2"/>
<feComposite in2="hardAlpha" operator="out"/>
<feColorMatrix type="matrix" values="0 0 0 0 0 0 0 0 0 0 0 0 0 0 0 0 0 0 0.25 0"/>
<feBlend mode="normal" in2="effect1_dropShadow_209_526" result="effect2_dropShadow_209_526"/>
<feColorMatrix in="SourceAlpha" type="matrix" values="0 0 0 0 0 0 0 0 0 0 0 0 0 0 0 0 0 0 127 0" result="hardAlpha"/>
<feOffset dy="4"/>
<feGaussianBlur stdDeviation="2"/>
<feComposite in2="hardAlpha" operator="out"/>
<feColorMatrix type="matrix" values="0 0 0 0 0 0 0 0 0 0 0 0 0 0 0 0 0 0 0.25 0"/>
<feBlend mode="normal" in2="effect2_dropShadow_209_526" result="effect3_dropShadow_209_526"/>
<feBlend mode="normal" in="SourceGraphic" in2="effect3_dropShadow_209_526" result="shape"/>
</filter>
<filter id="filter2_dd_209_526" x="0.5" y="0.5" width="48.9165" height="48.9165" filterUnits="userSpaceOnUse" color-interpolation-filters="sRGB">
<feFlood flood-opacity="0" result="BackgroundImageFix"/>
<feColorMatrix in="SourceAlpha" type="matrix" values="0 0 0 0 0 0 0 0 0 0 0 0 0 0 0 0 0 0 127 0" result="hardAlpha"/>
<feOffset dy="4"/>
<feGaussianBlur stdDeviation="2"/>
<feComposite in2="hardAlpha" operator="out"/>
<feColorMatrix type="matrix" values="0 0 0 0 0 0 0 0 0 0 0 0 0 0 0 0 0 0 0.25 0"/>
<feBlend mode="normal" in2="BackgroundImageFix" result="effect1_dropShadow_209_526"/>
<feColorMatrix in="SourceAlpha" type="matrix" values="0 0 0 0 0 0 0 0 0 0 0 0 0 0 0 0 0 0 127 0" result="hardAlpha"/>
<feOffset dy="4"/>
<feGaussianBlur stdDeviation="2"/>
<feComposite in2="hardAlpha" operator="out"/>
<feColorMatrix type="matrix" values="0 0 0 0 0 0 0 0 0 0 0 0 0 0 0 0 0 0 0.25 0"/>
<feBlend mode="normal" in2="effect1_dropShadow_209_526" result="effect2_dropShadow_209_526"/>
<feBlend mode="normal" in="SourceGraphic" in2="effect2_dropShadow_209_526" result="shape"/>
</filter>
<filter id="filter3_ddd_209_526" x="1.23071" y="45.2971" width="21.2522" height="13.8025" filterUnits="userSpaceOnUse" color-interpolation-filters="sRGB">
<feFlood flood-opacity="0" result="BackgroundImageFix"/>
<feColorMatrix in="SourceAlpha" type="matrix" values="0 0 0 0 0 0 0 0 0 0 0 0 0 0 0 0 0 0 127 0" result="hardAlpha"/>
<feOffset dy="4"/>
<feGaussianBlur stdDeviation="2"/>
<feComposite in2="hardAlpha" operator="out"/>
<feColorMatrix type="matrix" values="0 0 0 0 0 0 0 0 0 0 0 0 0 0 0 0 0 0 0.25 0"/>
<feBlend mode="normal" in2="BackgroundImageFix" result="effect1_dropShadow_209_526"/>
<feColorMatrix in="SourceAlpha" type="matrix" values="0 0 0 0 0 0 0 0 0 0 0 0 0 0 0 0 0 0 127 0" result="hardAlpha"/>
<feOffset dy="4"/>
<feGaussianBlur stdDeviation="2"/>
<feComposite in2="hardAlpha" operator="out"/>
<feColorMatrix type="matrix" values="0 0 0 0 0 0 0 0 0 0 0 0 0 0 0 0 0 0 0.25 0"/>
<feBlend mode="normal" in2="effect1_dropShadow_209_526" result="effect2_dropShadow_209_526"/>
<feColorMatrix in="SourceAlpha" type="matrix" values="0 0 0 0 0 0 0 0 0 0 0 0 0 0 0 0 0 0 127 0" result="hardAlpha"/>
<feOffset dy="4"/>
<feGaussianBlur stdDeviation="2"/>
<feComposite in2="hardAlpha" operator="out"/>
<feColorMatrix type="matrix" values="0 0 0 0 0 0 0 0 0 0 0 0 0 0 0 0 0 0 0.25 0"/>
<feBlend mode="normal" in2="effect2_dropShadow_209_526" result="effect3_dropShadow_209_526"/>
<feBlend mode="normal" in="SourceGraphic" in2="effect3_dropShadow_209_526" result="shape"/>
</filter>
<filter id="filter4_ddd_209_526" x="5.05078" y="53.2449" width="17.4189" height="13.9089" filterUnits="userSpaceOnUse" color-interpolation-filters="sRGB">
<feFlood flood-opacity="0" result="BackgroundImageFix"/>
<feColorMatrix in="SourceAlpha" type="matrix" values="0 0 0 0 0 0 0 0 0 0 0 0 0 0 0 0 0 0 127 0" result="hardAlpha"/>
<feOffset dy="4"/>
<feGaussianBlur stdDeviation="2"/>
<feComposite in2="hardAlpha" operator="out"/>
<feColorMatrix type="matrix" values="0 0 0 0 0 0 0 0 0 0 0 0 0 0 0 0 0 0 0.25 0"/>
<feBlend mode="normal" in2="BackgroundImageFix" result="effect1_dropShadow_209_526"/>
<feColorMatrix in="SourceAlpha" type="matrix" values="0 0 0 0 0 0 0 0 0 0 0 0 0 0 0 0 0 0 127 0" result="hardAlpha"/>
<feOffset dy="4"/>
<feGaussianBlur stdDeviation="2"/>
<feComposite in2="hardAlpha" operator="out"/>
<feColorMatrix type="matrix" values="0 0 0 0 0 0 0 0 0 0 0 0 0 0 0 0 0 0 0.25 0"/>
<feBlend mode="normal" in2="effect1_dropShadow_209_526" result="effect2_dropShadow_209_526"/>
<feColorMatrix in="SourceAlpha" type="matrix" values="0 0 0 0 0 0 0 0 0 0 0 0 0 0 0 0 0 0 127 0" result="hardAlpha"/>
<feOffset dy="4"/>
<feGaussianBlur stdDeviation="2"/>
<feComposite in2="hardAlpha" operator="out"/>
<feColorMatrix type="matrix" values="0 0 0 0 0 0 0 0 0 0 0 0 0 0 0 0 0 0 0.25 0"/>
<feBlend mode="normal" in2="effect2_dropShadow_209_526" result="effect3_dropShadow_209_526"/>
<feBlend mode="normal" in="SourceGraphic" in2="effect3_dropShadow_209_526" result="shape"/>
</filter>
<filter id="filter5_ddd_209_526" x="9.13477" y="61.4753" width="13.335" height="11.478" filterUnits="userSpaceOnUse" color-interpolation-filters="sRGB">
<feFlood flood-opacity="0" result="BackgroundImageFix"/>
<feColorMatrix in="SourceAlpha" type="matrix" values="0 0 0 0 0 0 0 0 0 0 0 0 0 0 0 0 0 0 127 0" result="hardAlpha"/>
<feOffset dy="4"/>
<feGaussianBlur stdDeviation="2"/>
<feComposite in2="hardAlpha" operator="out"/>
<feColorMatrix type="matrix" values="0 0 0 0 0 0 0 0 0 0 0 0 0 0 0 0 0 0 0.25 0"/>
<feBlend mode="normal" in2="BackgroundImageFix" result="effect1_dropShadow_209_526"/>
<feColorMatrix in="SourceAlpha" type="matrix" values="0 0 0 0 0 0 0 0 0 0 0 0 0 0 0 0 0 0 127 0" result="hardAlpha"/>
<feOffset dy="4"/>
<feGaussianBlur stdDeviation="2"/>
<feComposite in2="hardAlpha" operator="out"/>
<feColorMatrix type="matrix" values="0 0 0 0 0 0 0 0 0 0 0 0 0 0 0 0 0 0 0.25 0"/>
<feBlend mode="normal" in2="effect1_dropShadow_209_526" result="effect2_dropShadow_209_526"/>
<feColorMatrix in="SourceAlpha" type="matrix" values="0 0 0 0 0 0 0 0 0 0 0 0 0 0 0 0 0 0 127 0" result="hardAlpha"/>
<feOffset dy="4"/>
<feGaussianBlur stdDeviation="2"/>
<feComposite in2="hardAlpha" operator="out"/>
<feColorMatrix type="matrix" values="0 0 0 0 0 0 0 0 0 0 0 0 0 0 0 0 0 0 0.25 0"/>
<feBlend mode="normal" in2="effect2_dropShadow_209_526" result="effect3_dropShadow_209_526"/>
<feBlend mode="normal" in="SourceGraphic" in2="effect3_dropShadow_209_526" result="shape"/>
</filter>
<filter id="filter6_ddd_209_526" x="11.3755" y="64.9617" width="11.0981" height="10.386" filterUnits="userSpaceOnUse" color-interpolation-filters="sRGB">
<feFlood flood-opacity="0" result="BackgroundImageFix"/>
<feColorMatrix in="SourceAlpha" type="matrix" values="0 0 0 0 0 0 0 0 0 0 0 0 0 0 0 0 0 0 127 0" result="hardAlpha"/>
<feOffset dy="4"/>
<feGaussianBlur stdDeviation="2"/>
<feComposite in2="hardAlpha" operator="out"/>
<feColorMatrix type="matrix" values="0 0 0 0 0 0 0 0 0 0 0 0 0 0 0 0 0 0 0.25 0"/>
<feBlend mode="normal" in2="BackgroundImageFix" result="effect1_dropShadow_209_526"/>
<feColorMatrix in="SourceAlpha" type="matrix" values="0 0 0 0 0 0 0 0 0 0 0 0 0 0 0 0 0 0 127 0" result="hardAlpha"/>
<feOffset dy="4"/>
<feGaussianBlur stdDeviation="2"/>
<feComposite in2="hardAlpha" operator="out"/>
<feColorMatrix type="matrix" values="0 0 0 0 0 0 0 0 0 0 0 0 0 0 0 0 0 0 0.25 0"/>
<feBlend mode="normal" in2="effect1_dropShadow_209_526" result="effect2_dropShadow_209_526"/>
<feColorMatrix in="SourceAlpha" type="matrix" values="0 0 0 0 0 0 0 0 0 0 0 0 0 0 0 0 0 0 127 0" result="hardAlpha"/>
<feOffset dy="4"/>
<feGaussianBlur stdDeviation="2"/>
<feComposite in2="hardAlpha" operator="out"/>
<feColorMatrix type="matrix" values="0 0 0 0 0 0 0 0 0 0 0 0 0 0 0 0 0 0 0.25 0"/>
<feBlend mode="normal" in2="effect2_dropShadow_209_526" result="effect3_dropShadow_209_526"/>
<feBlend mode="normal" in="SourceGraphic" in2="effect3_dropShadow_209_526" result="shape"/>
</filter>
</defs>
</svg>
