<svg width="740" height="362" viewBox="0 0 740 362" fill="none" xmlns="http://www.w3.org/2000/svg">
<g filter="url(#filter0_ddd_204_168)">
<path d="M232.689 262.019L216.414 234.379L207.715 234.465L207.991 262.264L196.591 262.377L195.901 192.88L219.9 192.642C225.233 192.589 229.742 193.478 233.427 195.308C237.179 197.137 239.97 199.61 241.801 202.725C243.699 205.84 244.667 209.33 244.705 213.197C244.75 217.73 243.458 221.876 240.829 225.636C238.265 229.328 234.257 231.868 228.804 233.256L246.289 261.884L232.689 262.019ZM207.624 225.365L220.224 225.24C224.49 225.198 227.679 224.1 229.792 221.945C231.97 219.79 233.042 216.913 233.006 213.313C232.97 209.713 231.876 206.924 229.723 204.945C227.569 202.9 224.326 201.899 219.993 201.942L207.393 202.067L207.624 225.365ZM309.122 206.157L309.669 261.255L298.27 261.368L298.205 254.868C296.428 257.153 294.079 258.976 291.159 260.338C288.305 261.633 285.245 262.297 281.978 262.329C277.645 262.372 273.737 261.511 270.252 259.746C266.835 257.98 264.108 255.34 262.073 251.826C260.105 248.312 259.096 244.056 259.046 239.056L258.725 206.657L270.024 206.545L270.329 237.244C270.378 242.177 271.649 245.964 274.142 248.607C276.634 251.182 280.014 252.448 284.28 252.406C288.547 252.364 291.9 251.03 294.341 248.406C296.848 245.714 298.077 241.902 298.028 236.969L297.723 206.27L309.122 206.157ZM320.634 233.344C320.579 227.811 321.664 222.9 323.888 218.611C326.179 214.322 329.279 210.991 333.189 208.619C337.165 206.179 341.587 204.935 346.453 204.887C350.053 204.851 353.594 205.616 357.076 207.182C360.625 208.68 363.445 210.719 365.537 213.298L365.274 186.699L376.773 186.585L377.507 260.582L366.008 260.696L365.925 252.396C364.085 255.081 361.507 257.307 358.191 259.073C354.942 260.839 351.184 261.743 346.918 261.785C342.118 261.833 337.706 260.676 333.683 258.316C329.725 255.889 326.558 252.52 324.182 248.21C321.872 243.833 320.689 238.878 320.634 233.344ZM365.734 233.097C365.696 229.297 364.863 226.005 363.236 223.221C361.675 220.437 359.62 218.324 357.073 216.882C354.525 215.441 351.784 214.734 348.851 214.764C345.918 214.793 343.192 215.553 340.673 217.045C338.154 218.47 336.108 220.59 334.536 223.406C333.03 226.154 332.296 229.429 332.334 233.228C332.371 237.028 333.171 240.354 334.733 243.205C336.361 246.056 338.449 248.235 340.998 249.743C343.612 251.184 346.353 251.89 349.219 251.862C352.152 251.833 354.878 251.072 357.397 249.581C359.916 248.089 361.928 245.935 363.433 243.12C365.005 240.238 365.772 236.897 365.734 233.097ZM397.66 197.978C395.594 197.999 393.854 197.316 392.44 195.93C391.026 194.544 390.309 192.818 390.288 190.751C390.268 188.685 390.951 186.945 392.337 185.531C393.723 184.117 395.449 183.4 397.516 183.379C399.515 183.359 401.222 184.042 402.636 185.428C404.05 186.815 404.767 188.541 404.788 190.607C404.808 192.674 404.125 194.414 402.739 195.828C401.353 197.242 399.66 197.959 397.66 197.978ZM403.333 205.223L403.879 260.32L392.48 260.433L391.933 205.336L403.333 205.223ZM414.77 232.41C414.715 226.877 415.8 221.966 418.024 217.677C420.315 213.388 423.415 210.057 427.325 207.685C431.301 205.245 435.723 204.001 440.589 203.953C444.189 203.917 447.73 204.682 451.212 206.248C454.761 207.746 457.581 209.785 459.673 212.364L459.41 185.765L470.909 185.651L471.643 259.647L460.144 259.762L460.061 251.462C458.221 254.147 455.643 256.373 452.327 258.139C449.078 259.905 445.32 260.809 441.054 260.851C436.254 260.899 431.842 259.742 427.819 257.382C423.861 254.955 420.694 251.586 418.318 247.276C416.008 242.899 414.825 237.943 414.77 232.41ZM459.87 232.163C459.832 228.363 458.999 225.071 457.372 222.287C455.811 219.503 453.756 217.389 451.209 215.948C448.661 214.507 445.92 213.8 442.987 213.83C440.054 213.859 437.328 214.619 434.809 216.111C432.29 217.536 430.244 219.656 428.672 222.472C427.166 225.22 426.432 228.495 426.47 232.294C426.507 236.094 427.307 239.42 428.869 242.271C430.497 245.122 432.585 247.301 435.134 248.809C437.748 250.25 440.489 250.956 443.355 250.928C446.288 250.899 449.014 250.138 451.533 248.646C454.052 247.155 456.064 245.001 457.569 242.186C459.141 239.304 459.908 235.963 459.87 232.163ZM510.524 260.162C505.324 260.213 500.613 259.093 496.39 256.802C492.166 254.444 488.833 251.143 486.391 246.9C483.948 242.591 482.698 237.603 482.642 231.937C482.587 226.337 483.771 221.359 486.194 217.001C488.618 212.643 491.951 209.277 496.194 206.901C500.438 204.526 505.193 203.312 510.459 203.26C515.725 203.207 520.503 204.327 524.793 206.617C529.083 208.908 532.482 212.208 534.992 216.517C537.501 220.825 538.784 225.78 538.839 231.379C538.895 236.979 537.678 241.958 535.187 246.316C532.697 250.675 529.264 254.075 524.888 256.519C520.578 258.895 515.79 260.109 510.524 260.162ZM510.425 250.262C513.359 250.233 516.085 249.506 518.604 248.081C521.19 246.655 523.269 244.534 524.841 241.719C526.413 238.903 527.18 235.495 527.14 231.495C527.1 227.496 526.3 224.137 524.74 221.419C523.179 218.634 521.125 216.554 518.578 215.18C516.031 213.805 513.29 213.132 510.357 213.161C507.424 213.19 504.698 213.917 502.179 215.342C499.726 216.767 497.78 218.886 496.341 221.701C494.902 224.448 494.202 227.822 494.242 231.822C494.301 237.755 495.846 242.34 498.878 245.577C501.977 248.746 505.826 250.308 510.425 250.262Z" fill="#28113C"/>
<path d="M605.19 188.819L605.88 258.315L594.48 258.429L594.178 228.03L561.48 228.355L561.782 258.753L550.382 258.866L549.693 189.37L561.092 189.256L561.388 219.055L594.086 218.731L593.791 188.932L605.19 188.819ZM674.809 270.232L662.479 257.154C659.487 258.05 656.192 258.516 652.592 258.552C646.126 258.616 640.144 257.175 634.648 254.23C629.218 251.217 624.876 247.026 621.623 241.658C618.435 236.223 616.808 230.106 616.741 223.306C616.673 216.506 618.179 210.391 621.259 204.96C624.405 199.529 628.663 195.286 634.033 192.233C639.469 189.112 645.42 187.52 651.887 187.455C658.42 187.391 664.401 188.865 669.831 191.878C675.327 194.823 679.669 198.98 682.856 204.349C686.042 209.718 687.67 215.802 687.737 222.601C687.801 229.001 686.458 234.815 683.71 240.042C681.028 245.202 677.269 249.373 672.433 252.555L689.308 270.088L674.809 270.232ZM628.44 223.19C628.491 228.323 629.536 232.846 631.575 236.759C633.68 240.605 636.543 243.577 640.164 245.675C643.784 247.705 647.894 248.698 652.494 248.652C657.094 248.607 661.183 247.533 664.762 245.431C668.341 243.262 671.111 240.234 673.073 236.348C675.1 232.394 676.089 227.851 676.038 222.718C675.987 217.584 674.909 213.095 672.804 209.249C670.766 205.402 667.936 202.464 664.316 200.433C660.696 198.402 656.586 197.409 651.986 197.455C647.386 197.501 643.296 198.575 639.717 200.677C636.138 202.779 633.334 205.774 631.306 209.661C629.344 213.547 628.389 218.057 628.44 223.19Z" fill="#EA1AB0"/>
</g>
<g filter="url(#filter1_ddd_204_168)">
<rect x="120.098" y="223.323" width="150.705" height="37.0765" rx="18.5383" transform="rotate(45.2975 120.098 223.323)" fill="#28113C"/>
<rect x="120.094" y="224.03" width="149.705" height="36.0765" rx="18.0383" transform="rotate(45.2975 120.094 224.03)" stroke="#E5E5E5"/>
</g>
<rect x="74.2567" y="64.0229" width="82.4193" height="13.4766" rx="6.73828" transform="rotate(89.2613 74.2567 64.0229)" fill="#28113C"/>
<g filter="url(#filter2_dd_204_168)">
<mask id="path-5-outside-1_204_168" maskUnits="userSpaceOnUse" x="4" y="-0.327148" width="214" height="214" fill="black">
<rect fill="white" x="4" y="-0.327148" width="214" height="214"/>
<path fill-rule="evenodd" clip-rule="evenodd" d="M111.074 212.821C169.657 212.821 217.148 165.33 217.148 106.747C217.148 48.1638 169.657 0.672852 111.074 0.672852C52.4909 0.672852 5 48.1638 5 106.747C5 113.549 5.64032 120.202 6.86397 126.648L34.1291 91.426C42.9571 80.0215 60.2623 82.2928 67.0968 94.4484C72.0749 83.4155 88.0117 83.0929 94.0095 94.2701L115.789 134.857C120.655 143.924 115.382 154.558 105.823 156.315C111.635 161.244 113.195 170.291 107.466 176.942L81.4065 207.196L83.2209 209.126C92.0969 211.535 101.435 212.821 111.074 212.821Z"/>
</mask>
<path fill-rule="evenodd" clip-rule="evenodd" d="M111.074 212.821C169.657 212.821 217.148 165.33 217.148 106.747C217.148 48.1638 169.657 0.672852 111.074 0.672852C52.4909 0.672852 5 48.1638 5 106.747C5 113.549 5.64032 120.202 6.86397 126.648L34.1291 91.426C42.9571 80.0215 60.2623 82.2928 67.0968 94.4484C72.0749 83.4155 88.0117 83.0929 94.0095 94.2701L115.789 134.857C120.655 143.924 115.382 154.558 105.823 156.315C111.635 161.244 113.195 170.291 107.466 176.942L81.4065 207.196L83.2209 209.126C92.0969 211.535 101.435 212.821 111.074 212.821Z" fill="#28113C"/>
<path d="M6.86397 126.648L6.37274 126.742L6.57978 127.832L7.25935 126.954L6.86397 126.648ZM34.1291 91.426L33.7337 91.12L33.7337 91.12L34.1291 91.426ZM67.0968 94.4484L66.6609 94.6935L67.1457 95.5557L67.5525 94.654L67.0968 94.4484ZM94.0095 94.2701L94.4501 94.0336L94.4501 94.0336L94.0095 94.2701ZM115.789 134.857L116.23 134.621L116.23 134.621L115.789 134.857ZM105.823 156.315L105.733 155.823L104.695 156.014L105.5 156.696L105.823 156.315ZM107.466 176.942L107.087 176.616L107.087 176.616L107.466 176.942ZM81.4065 207.196L81.0277 206.869L80.7341 207.21L81.0422 207.538L81.4065 207.196ZM83.2209 209.126L82.8566 209.469L82.9535 209.572L83.09 209.609L83.2209 209.126ZM216.648 106.747C216.648 165.054 169.381 212.321 111.074 212.321V213.321C169.933 213.321 217.648 165.606 217.648 106.747H216.648ZM111.074 1.17285C169.381 1.17285 216.648 48.4399 216.648 106.747H217.648C217.648 47.8876 169.933 0.172852 111.074 0.172852V1.17285ZM5.5 106.747C5.5 48.4399 52.7671 1.17285 111.074 1.17285V0.172852C52.2148 0.172852 4.5 47.8876 4.5 106.747H5.5ZM7.3552 126.555C6.13735 120.139 5.5 113.518 5.5 106.747H4.5C4.5 113.581 5.14328 120.265 6.37274 126.742L7.3552 126.555ZM33.7337 91.12L6.46858 126.342L7.25935 126.954L34.5245 91.7321L33.7337 91.12ZM67.5326 94.2034C60.5416 81.7694 42.8039 79.4026 33.7337 91.12L34.5245 91.7321C43.1103 80.6405 59.9829 82.8162 66.6609 94.6935L67.5326 94.2034ZM94.4501 94.0336C88.2725 82.5214 71.8036 82.8011 66.641 94.2428L67.5525 94.654C72.3462 84.0299 87.7509 83.6644 93.5689 94.5065L94.4501 94.0336ZM116.23 134.621L94.4501 94.0336L93.5689 94.5065L115.348 135.093L116.23 134.621ZM105.914 156.807C115.811 154.987 121.253 143.981 116.23 134.621L115.348 135.093C120.056 143.867 114.953 154.128 105.733 155.823L105.914 156.807ZM107.845 177.269C113.773 170.386 112.149 161.024 106.147 155.934L105.5 156.696C111.122 161.464 112.617 170.196 107.087 176.616L107.845 177.269ZM81.7854 207.522L107.845 177.269L107.087 176.616L81.0277 206.869L81.7854 207.522ZM81.0422 207.538L82.8566 209.469L83.5853 208.784L81.7709 206.853L81.0422 207.538ZM111.074 212.321C101.48 212.321 92.1856 211.041 83.3519 208.644L83.09 209.609C92.0083 212.029 101.391 213.321 111.074 213.321V212.321Z" fill="#E5E5E5" mask="url(#path-5-outside-1_204_168)"/>
</g>
<g filter="url(#filter3_ddd_204_168)">
<mask id="path-7-inside-2_204_168" fill="white">
<path fill-rule="evenodd" clip-rule="evenodd" d="M76.6587 236.601L21.4806 236.102C13.103 236.026 6.27333 242.756 6.22608 251.134C6.17883 259.512 12.9319 266.365 21.3095 266.441L76.6587 266.941V236.601Z"/>
</mask>
<path fill-rule="evenodd" clip-rule="evenodd" d="M76.6587 236.601L21.4806 236.102C13.103 236.026 6.27333 242.756 6.22608 251.134C6.17883 259.512 12.9319 266.365 21.3095 266.441L76.6587 266.941V236.601Z" fill="#EA1AB0"/>
<path d="M76.6587 236.601H78.6587V234.619L76.6767 234.601L76.6587 236.601ZM21.4806 236.102L21.4986 234.102L21.4806 236.102ZM6.22608 251.134L4.22611 251.123L6.22608 251.134ZM21.3095 266.441L21.2914 268.44L21.2914 268.44L21.3095 266.441ZM76.6587 266.941L76.6406 268.941L78.6587 268.959V266.941H76.6587ZM76.6767 234.601L21.4986 234.102L21.4625 238.102L76.6406 238.601L76.6767 234.601ZM21.4986 234.102C12.0139 234.016 4.2796 241.638 4.22611 251.123L8.22604 251.145C8.26705 243.875 14.1921 238.036 21.4625 238.102L21.4986 234.102ZM4.22611 251.123C4.17264 260.603 11.8119 268.355 21.2914 268.44L21.3275 264.441C14.0518 264.375 8.18501 258.421 8.22604 251.145L4.22611 251.123ZM21.2914 268.44L76.6406 268.941L76.6767 264.941L21.3275 264.441L21.2914 268.44ZM78.6587 266.941V236.601H74.6587V266.941H78.6587Z" fill="#E5E5E5" mask="url(#path-7-inside-2_204_168)"/>
</g>
<g filter="url(#filter4_ddd_204_168)">
<mask id="path-9-inside-3_204_168" fill="white">
<path fill-rule="evenodd" clip-rule="evenodd" d="M76.5908 278.78L42.0743 278.344C33.5239 278.235 26.5644 285.08 26.53 293.631C26.4955 302.182 33.399 309.201 41.9495 309.31L76.5908 309.748V278.78Z"/>
</mask>
<path fill-rule="evenodd" clip-rule="evenodd" d="M76.5908 278.78L42.0743 278.344C33.5239 278.235 26.5644 285.08 26.53 293.631C26.4955 302.182 33.399 309.201 41.9495 309.31L76.5908 309.748V278.78Z" fill="#28113C"/>
<path d="M76.5908 278.78H78.5908V276.805L76.616 276.78L76.5908 278.78ZM42.0743 278.344L42.049 280.343L42.0743 278.344ZM26.53 293.631L24.53 293.623L26.53 293.631ZM41.9495 309.31L41.9242 311.309L41.9242 311.309L41.9495 309.31ZM76.5908 309.748L76.5655 311.747L78.5908 311.773V309.748H76.5908ZM76.616 276.78L42.0996 276.344L42.049 280.343L76.5655 280.78L76.616 276.78ZM42.0996 276.344C32.438 276.222 24.5689 283.96 24.53 293.623L28.53 293.639C28.56 286.199 34.6098 280.249 42.049 280.343L42.0996 276.344ZM24.53 293.623C24.4911 303.272 32.276 311.187 41.9242 311.309L41.9747 307.31C34.5221 307.216 28.4999 301.092 28.53 293.639L24.53 293.623ZM41.9242 311.309L76.5655 311.747L76.616 307.748L41.9747 307.31L41.9242 311.309ZM78.5908 309.748V278.78H74.5908V309.748H78.5908Z" fill="#E5E5E5" mask="url(#path-9-inside-3_204_168)"/>
</g>
<g filter="url(#filter5_ddd_204_168)">
<path fill-rule="evenodd" clip-rule="evenodd" d="M76.591 322.339L57.3851 322.087C52.3513 322.021 48.2548 326.048 48.2353 331.082C48.2158 336.116 52.2806 340.251 57.3144 340.317L76.591 340.571V322.339Z" fill="#EA1AB0"/>
</g>
<g filter="url(#filter6_ddd_204_168)">
<path fill-rule="evenodd" clip-rule="evenodd" d="M76.5846 340.739L66.4317 340.616C62.9646 340.574 60.1492 343.351 60.1434 346.818C60.1376 350.286 62.9436 353.131 66.4107 353.173L76.6091 353.297L76.5846 340.739Z" fill="#EA1AB0"/>
</g>
<defs>
<filter id="filter0_ddd_204_168" x="191.827" y="180.493" width="501.481" height="102.483" filterUnits="userSpaceOnUse" color-interpolation-filters="sRGB">
<feFlood flood-opacity="0" result="BackgroundImageFix"/>
<feColorMatrix in="SourceAlpha" type="matrix" values="0 0 0 0 0 0 0 0 0 0 0 0 0 0 0 0 0 0 127 0" result="hardAlpha"/>
<feOffset dy="4"/>
<feGaussianBlur stdDeviation="2"/>
<feComposite in2="hardAlpha" operator="out"/>
<feColorMatrix type="matrix" values="0 0 0 0 0 0 0 0 0 0 0 0 0 0 0 0 0 0 0.25 0"/>
<feBlend mode="normal" in2="BackgroundImageFix" result="effect1_dropShadow_204_168"/>
<feColorMatrix in="SourceAlpha" type="matrix" values="0 0 0 0 0 0 0 0 0 0 0 0 0 0 0 0 0 0 127 0" result="hardAlpha"/>
<feOffset dy="4"/>
<feGaussianBlur stdDeviation="2"/>
<feComposite in2="hardAlpha" operator="out"/>
<feColorMatrix type="matrix" values="0 0 0 0 0 0 0 0 0 0 0 0 0 0 0 0 0 0 0.25 0"/>
<feBlend mode="normal" in2="effect1_dropShadow_204_168" result="effect2_dropShadow_204_168"/>
<feColorMatrix in="SourceAlpha" type="matrix" values="0 0 0 0 0 0 0 0 0 0 0 0 0 0 0 0 0 0 127 0" result="hardAlpha"/>
<feOffset dy="4"/>
<feGaussianBlur stdDeviation="2"/>
<feComposite in2="hardAlpha" operator="out"/>
<feColorMatrix type="matrix" values="0 0 0 0 0 0 0 0 0 0 0 0 0 0 0 0 0 0 0.25 0"/>
<feBlend mode="normal" in2="effect2_dropShadow_204_168" result="effect3_dropShadow_204_168"/>
<feBlend mode="normal" in="SourceGraphic" in2="effect3_dropShadow_204_168" result="shape"/>
</filter>
<filter id="filter1_ddd_204_168" x="97.4235" y="231.002" width="125.005" height="125.84" filterUnits="userSpaceOnUse" color-interpolation-filters="sRGB">
<feFlood flood-opacity="0" result="BackgroundImageFix"/>
<feColorMatrix in="SourceAlpha" type="matrix" values="0 0 0 0 0 0 0 0 0 0 0 0 0 0 0 0 0 0 127 0" result="hardAlpha"/>
<feOffset dy="4"/>
<feGaussianBlur stdDeviation="2"/>
<feComposite in2="hardAlpha" operator="out"/>
<feColorMatrix type="matrix" values="0 0 0 0 0 0 0 0 0 0 0 0 0 0 0 0 0 0 0.25 0"/>
<feBlend mode="normal" in2="BackgroundImageFix" result="effect1_dropShadow_204_168"/>
<feColorMatrix in="SourceAlpha" type="matrix" values="0 0 0 0 0 0 0 0 0 0 0 0 0 0 0 0 0 0 127 0" result="hardAlpha"/>
<feOffset dy="4"/>
<feGaussianBlur stdDeviation="2"/>
<feComposite in2="hardAlpha" operator="out"/>
<feColorMatrix type="matrix" values="0 0 0 0 0 0 0 0 0 0 0 0 0 0 0 0 0 0 0.25 0"/>
<feBlend mode="normal" in2="effect1_dropShadow_204_168" result="effect2_dropShadow_204_168"/>
<feColorMatrix in="SourceAlpha" type="matrix" values="0 0 0 0 0 0 0 0 0 0 0 0 0 0 0 0 0 0 127 0" result="hardAlpha"/>
<feOffset dy="4"/>
<feGaussianBlur stdDeviation="2"/>
<feComposite in2="hardAlpha" operator="out"/>
<feColorMatrix type="matrix" values="0 0 0 0 0 0 0 0 0 0 0 0 0 0 0 0 0 0 0.25 0"/>
<feBlend mode="normal" in2="effect2_dropShadow_204_168" result="effect3_dropShadow_204_168"/>
<feBlend mode="normal" in="SourceGraphic" in2="effect3_dropShadow_204_168" result="shape"/>
</filter>
<filter id="filter2_dd_204_168" x="0.5" y="0.172852" width="221.148" height="221.148" filterUnits="userSpaceOnUse" color-interpolation-filters="sRGB">
<feFlood flood-opacity="0" result="BackgroundImageFix"/>
<feColorMatrix in="SourceAlpha" type="matrix" values="0 0 0 0 0 0 0 0 0 0 0 0 0 0 0 0 0 0 127 0" result="hardAlpha"/>
<feOffset dy="4"/>
<feGaussianBlur stdDeviation="2"/>
<feComposite in2="hardAlpha" operator="out"/>
<feColorMatrix type="matrix" values="0 0 0 0 0 0 0 0 0 0 0 0 0 0 0 0 0 0 0.25 0"/>
<feBlend mode="normal" in2="BackgroundImageFix" result="effect1_dropShadow_204_168"/>
<feColorMatrix in="SourceAlpha" type="matrix" values="0 0 0 0 0 0 0 0 0 0 0 0 0 0 0 0 0 0 127 0" result="hardAlpha"/>
<feOffset dy="4"/>
<feGaussianBlur stdDeviation="2"/>
<feComposite in2="hardAlpha" operator="out"/>
<feColorMatrix type="matrix" values="0 0 0 0 0 0 0 0 0 0 0 0 0 0 0 0 0 0 0.25 0"/>
<feBlend mode="normal" in2="effect1_dropShadow_204_168" result="effect2_dropShadow_204_168"/>
<feBlend mode="normal" in="SourceGraphic" in2="effect2_dropShadow_204_168" result="shape"/>
</filter>
<filter id="filter3_ddd_204_168" x="2.22583" y="236.101" width="78.4328" height="38.8396" filterUnits="userSpaceOnUse" color-interpolation-filters="sRGB">
<feFlood flood-opacity="0" result="BackgroundImageFix"/>
<feColorMatrix in="SourceAlpha" type="matrix" values="0 0 0 0 0 0 0 0 0 0 0 0 0 0 0 0 0 0 127 0" result="hardAlpha"/>
<feOffset dy="4"/>
<feGaussianBlur stdDeviation="2"/>
<feComposite in2="hardAlpha" operator="out"/>
<feColorMatrix type="matrix" values="0 0 0 0 0 0 0 0 0 0 0 0 0 0 0 0 0 0 0.25 0"/>
<feBlend mode="normal" in2="BackgroundImageFix" result="effect1_dropShadow_204_168"/>
<feColorMatrix in="SourceAlpha" type="matrix" values="0 0 0 0 0 0 0 0 0 0 0 0 0 0 0 0 0 0 127 0" result="hardAlpha"/>
<feOffset dy="4"/>
<feGaussianBlur stdDeviation="2"/>
<feComposite in2="hardAlpha" operator="out"/>
<feColorMatrix type="matrix" values="0 0 0 0 0 0 0 0 0 0 0 0 0 0 0 0 0 0 0.25 0"/>
<feBlend mode="normal" in2="effect1_dropShadow_204_168" result="effect2_dropShadow_204_168"/>
<feColorMatrix in="SourceAlpha" type="matrix" values="0 0 0 0 0 0 0 0 0 0 0 0 0 0 0 0 0 0 127 0" result="hardAlpha"/>
<feOffset dy="4"/>
<feGaussianBlur stdDeviation="2"/>
<feComposite in2="hardAlpha" operator="out"/>
<feColorMatrix type="matrix" values="0 0 0 0 0 0 0 0 0 0 0 0 0 0 0 0 0 0 0.25 0"/>
<feBlend mode="normal" in2="effect2_dropShadow_204_168" result="effect3_dropShadow_204_168"/>
<feBlend mode="normal" in="SourceGraphic" in2="effect3_dropShadow_204_168" result="shape"/>
</filter>
<filter id="filter4_ddd_204_168" x="22.5298" y="278.342" width="58.0609" height="39.4053" filterUnits="userSpaceOnUse" color-interpolation-filters="sRGB">
<feFlood flood-opacity="0" result="BackgroundImageFix"/>
<feColorMatrix in="SourceAlpha" type="matrix" values="0 0 0 0 0 0 0 0 0 0 0 0 0 0 0 0 0 0 127 0" result="hardAlpha"/>
<feOffset dy="4"/>
<feGaussianBlur stdDeviation="2"/>
<feComposite in2="hardAlpha" operator="out"/>
<feColorMatrix type="matrix" values="0 0 0 0 0 0 0 0 0 0 0 0 0 0 0 0 0 0 0.25 0"/>
<feBlend mode="normal" in2="BackgroundImageFix" result="effect1_dropShadow_204_168"/>
<feColorMatrix in="SourceAlpha" type="matrix" values="0 0 0 0 0 0 0 0 0 0 0 0 0 0 0 0 0 0 127 0" result="hardAlpha"/>
<feOffset dy="4"/>
<feGaussianBlur stdDeviation="2"/>
<feComposite in2="hardAlpha" operator="out"/>
<feColorMatrix type="matrix" values="0 0 0 0 0 0 0 0 0 0 0 0 0 0 0 0 0 0 0.25 0"/>
<feBlend mode="normal" in2="effect1_dropShadow_204_168" result="effect2_dropShadow_204_168"/>
<feColorMatrix in="SourceAlpha" type="matrix" values="0 0 0 0 0 0 0 0 0 0 0 0 0 0 0 0 0 0 127 0" result="hardAlpha"/>
<feOffset dy="4"/>
<feGaussianBlur stdDeviation="2"/>
<feComposite in2="hardAlpha" operator="out"/>
<feColorMatrix type="matrix" values="0 0 0 0 0 0 0 0 0 0 0 0 0 0 0 0 0 0 0.25 0"/>
<feBlend mode="normal" in2="effect2_dropShadow_204_168" result="effect3_dropShadow_204_168"/>
<feBlend mode="normal" in="SourceGraphic" in2="effect3_dropShadow_204_168" result="shape"/>
</filter>
<filter id="filter5_ddd_204_168" x="44.2352" y="322.086" width="36.3558" height="26.4844" filterUnits="userSpaceOnUse" color-interpolation-filters="sRGB">
<feFlood flood-opacity="0" result="BackgroundImageFix"/>
<feColorMatrix in="SourceAlpha" type="matrix" values="0 0 0 0 0 0 0 0 0 0 0 0 0 0 0 0 0 0 127 0" result="hardAlpha"/>
<feOffset dy="4"/>
<feGaussianBlur stdDeviation="2"/>
<feComposite in2="hardAlpha" operator="out"/>
<feColorMatrix type="matrix" values="0 0 0 0 0 0 0 0 0 0 0 0 0 0 0 0 0 0 0.25 0"/>
<feBlend mode="normal" in2="BackgroundImageFix" result="effect1_dropShadow_204_168"/>
<feColorMatrix in="SourceAlpha" type="matrix" values="0 0 0 0 0 0 0 0 0 0 0 0 0 0 0 0 0 0 127 0" result="hardAlpha"/>
<feOffset dy="4"/>
<feGaussianBlur stdDeviation="2"/>
<feComposite in2="hardAlpha" operator="out"/>
<feColorMatrix type="matrix" values="0 0 0 0 0 0 0 0 0 0 0 0 0 0 0 0 0 0 0.25 0"/>
<feBlend mode="normal" in2="effect1_dropShadow_204_168" result="effect2_dropShadow_204_168"/>
<feColorMatrix in="SourceAlpha" type="matrix" values="0 0 0 0 0 0 0 0 0 0 0 0 0 0 0 0 0 0 127 0" result="hardAlpha"/>
<feOffset dy="4"/>
<feGaussianBlur stdDeviation="2"/>
<feComposite in2="hardAlpha" operator="out"/>
<feColorMatrix type="matrix" values="0 0 0 0 0 0 0 0 0 0 0 0 0 0 0 0 0 0 0.25 0"/>
<feBlend mode="normal" in2="effect2_dropShadow_204_168" result="effect3_dropShadow_204_168"/>
<feBlend mode="normal" in="SourceGraphic" in2="effect3_dropShadow_204_168" result="shape"/>
</filter>
<filter id="filter6_ddd_204_168" x="56.1434" y="340.615" width="24.4657" height="20.6812" filterUnits="userSpaceOnUse" color-interpolation-filters="sRGB">
<feFlood flood-opacity="0" result="BackgroundImageFix"/>
<feColorMatrix in="SourceAlpha" type="matrix" values="0 0 0 0 0 0 0 0 0 0 0 0 0 0 0 0 0 0 127 0" result="hardAlpha"/>
<feOffset dy="4"/>
<feGaussianBlur stdDeviation="2"/>
<feComposite in2="hardAlpha" operator="out"/>
<feColorMatrix type="matrix" values="0 0 0 0 0 0 0 0 0 0 0 0 0 0 0 0 0 0 0.25 0"/>
<feBlend mode="normal" in2="BackgroundImageFix" result="effect1_dropShadow_204_168"/>
<feColorMatrix in="SourceAlpha" type="matrix" values="0 0 0 0 0 0 0 0 0 0 0 0 0 0 0 0 0 0 127 0" result="hardAlpha"/>
<feOffset dy="4"/>
<feGaussianBlur stdDeviation="2"/>
<feComposite in2="hardAlpha" operator="out"/>
<feColorMatrix type="matrix" values="0 0 0 0 0 0 0 0 0 0 0 0 0 0 0 0 0 0 0.25 0"/>
<feBlend mode="normal" in2="effect1_dropShadow_204_168" result="effect2_dropShadow_204_168"/>
<feColorMatrix in="SourceAlpha" type="matrix" values="0 0 0 0 0 0 0 0 0 0 0 0 0 0 0 0 0 0 127 0" result="hardAlpha"/>
<feOffset dy="4"/>
<feGaussianBlur stdDeviation="2"/>
<feComposite in2="hardAlpha" operator="out"/>
<feColorMatrix type="matrix" values="0 0 0 0 0 0 0 0 0 0 0 0 0 0 0 0 0 0 0.25 0"/>
<feBlend mode="normal" in2="effect2_dropShadow_204_168" result="effect3_dropShadow_204_168"/>
<feBlend mode="normal" in="SourceGraphic" in2="effect3_dropShadow_204_168" result="shape"/>
</filter>
</defs>
</svg>
